# xmcd
#
# Track frame offsets:
#	150
#	12438
#	58692
#	69402
#	105594
#	119627
#	125098
#	141630
#	185113
#	205157
#	229623
#	239478
#	256044
#	267860
#	324674
#
# Disc length: 4622 seconds
#
# Revision: 1
# Processed by: cddbd v1.5.2PL0 Copyright (c) Steve Scherf et al.
# Submitted via: audiograbber 1.83.01
#
DISCID=e7120c0f
DTITLE=Florian Michlbauer - Meine Musik - mein Leben  CD1
DYEAR=2006
DGENRE=
TTITLE0=Feierlicher Einzug
TTITLE1=Erzählung---Eltern-Kindheit-Jugend
TTITLE2=Der alte Schaukelstuhl
TTITLE3=Erzählung---Familie-Musik. Höhepunkte-Daniel
TTITLE4=Daniel´s Latin-Nummer
TTITLE5=Erzählung---Anna Maria
TTITLE6=Tausend Jahre Glück
TTITLE7=Erzählung---Meine Schwester Angelika-Die Steir. Harmonika
TTITLE8=Dein Friseur
TTITLE9=Erzählung---Musikalsche Vorbilder und Freunde
TTITLE10=Posaunenintermezzo
TTITLE11=Erzählung---Freunde und Neider
TTITLE12=Verliebte Posaune
TTITLE13=Erzählung---Chorleiter und Komponist
TTITLE14=Weihnachtliche Fantasie
EXTD=
EXTT0=
EXTT1=
EXTT2=
EXTT3=
EXTT4=
EXTT5=
EXTT6=
EXTT7=
EXTT8=
EXTT9=
EXTT10=
EXTT11=
EXTT12=
EXTT13=
EXTT14=
PLAYORDER=
